<svg xmlns="http://www.w3.org/2000/svg" xmlns:xlink="http://www.w3.org/1999/xlink" width="300" zoomAndPan="magnify" viewBox="0 0 224.87999 74.999997" height="100" preserveAspectRatio="xMidYMid meet" version="1.0"><defs><g/><clipPath id="id1"><path d="M 32 13.101562 L 68.613281 13.101562 L 68.613281 54 L 32 54 Z M 32 13.101562 " clip-rule="nonzero"/></clipPath><clipPath id="id2"><path d="M 15.398438 20 L 65 20 L 65 66.3125 L 15.398438 66.3125 Z M 15.398438 20 " clip-rule="nonzero"/></clipPath><clipPath id="id3"><path d="M 59.15625 8.875 L 65.363281 8.875 L 65.363281 15.085938 L 59.15625 15.085938 Z M 59.15625 8.875 " clip-rule="nonzero"/></clipPath><clipPath id="id4"><path d="M 71.203125 21.632812 L 77.410156 21.632812 L 77.410156 27.839844 L 71.203125 27.839844 Z M 71.203125 21.632812 " clip-rule="nonzero"/></clipPath><clipPath id="id5"><path d="M 78.246094 17.925781 L 83.125 17.925781 L 83.125 22.804688 L 78.246094 22.804688 Z M 78.246094 17.925781 " clip-rule="nonzero"/></clipPath><clipPath id="id6"><path d="M 70.667969 13.101562 L 74.214844 13.101562 L 74.214844 16.648438 L 70.667969 16.648438 Z M 70.667969 13.101562 " clip-rule="nonzero"/></clipPath><clipPath id="id7"><path d="M 79.746094 11.695312 L 82.40625 11.695312 L 82.40625 14.355469 L 79.746094 14.355469 Z M 79.746094 11.695312 " clip-rule="nonzero"/></clipPath><clipPath id="id8"><path d="M 59.683594 20.433594 L 67.664062 20.433594 L 67.664062 28.414062 L 59.683594 28.414062 Z M 59.683594 20.433594 " clip-rule="nonzero"/></clipPath><clipPath id="id9"><path d="M 50.980469 20.433594 L 55.414062 20.433594 L 55.414062 24.867188 L 50.980469 24.867188 Z M 50.980469 20.433594 " clip-rule="nonzero"/></clipPath><clipPath id="id10"><path d="M 57.269531 16.699219 L 63.476562 16.699219 L 63.476562 22.90625 L 57.269531 22.90625 Z M 57.269531 16.699219 " clip-rule="nonzero"/></clipPath><clipPath id="id11"><path d="M 62.113281 24.480469 L 68.761719 24.480469 L 68.761719 31.132812 L 62.113281 31.132812 Z M 62.113281 24.480469 " clip-rule="nonzero"/></clipPath></defs><path fill="#40b93c" d="M 46.59375 30.320312 C 46.691406 30.441406 46.792969 30.574219 46.890625 30.714844 C 46.984375 30.847656 47.078125 30.976562 47.175781 31.113281 C 47.273438 31.25 47.363281 31.402344 47.464844 31.554688 C 47.515625 31.632812 47.5625 31.714844 47.613281 31.792969 C 47.640625 31.832031 47.664062 31.871094 47.691406 31.914062 L 47.761719 32.039062 C 47.859375 32.214844 47.960938 32.390625 48.058594 32.5625 C 48.445312 33.292969 48.824219 34.121094 49.132812 35.019531 C 49.269531 35.421875 49.382812 35.820312 49.484375 36.210938 C 49.539062 36.15625 49.59375 36.105469 49.648438 36.050781 C 49.597656 35.644531 49.535156 35.226562 49.460938 34.800781 C 49.292969 33.886719 49.078125 33.027344 48.851562 32.253906 C 48.792969 32.066406 48.734375 31.878906 48.675781 31.6875 L 48.632812 31.554688 C 48.621094 31.507812 48.601562 31.464844 48.585938 31.421875 C 48.554688 31.335938 48.527344 31.25 48.496094 31.164062 C 48.433594 30.992188 48.382812 30.828125 48.320312 30.671875 C 48.257812 30.519531 48.199219 30.371094 48.140625 30.226562 C 48.035156 29.9375 47.914062 29.6875 47.816406 29.460938 C 47.796875 29.417969 47.78125 29.375 47.761719 29.335938 C 47.542969 29.496094 47.324219 29.667969 47.105469 29.855469 C 46.933594 30.003906 46.761719 30.15625 46.59375 30.320312 " fill-opacity="1" fill-rule="nonzero"/><path fill="#40b93c" d="M 50.175781 36.90625 C 50.210938 36.585938 50.257812 36.253906 50.316406 35.914062 C 50.328125 35.855469 50.339844 35.792969 50.351562 35.734375 C 50.273438 35.828125 50.195312 35.921875 50.113281 36.023438 C 50.140625 36.324219 50.160156 36.617188 50.175781 36.90625 " fill-opacity="1" fill-rule="nonzero"/><path fill="#40b93c" d="M 32.140625 28.105469 C 32.34375 28.5 32.53125 28.898438 32.707031 29.285156 C 32.625 28.917969 32.542969 28.527344 32.464844 28.121094 C 32.410156 28.117188 32.351562 28.113281 32.292969 28.109375 C 32.242188 28.105469 32.191406 28.105469 32.140625 28.105469 " fill-opacity="1" fill-rule="nonzero"/><path fill="#40b93c" d="M 50.539062 38.851562 L 50.5625 38.855469 C 50.574219 38.789062 50.585938 38.726562 50.601562 38.660156 C 50.585938 38.714844 50.566406 38.765625 50.550781 38.820312 C 50.546875 38.832031 50.542969 38.839844 50.539062 38.851562 " fill-opacity="1" fill-rule="nonzero"/><path fill="#40b93c" d="M 33.324219 29.933594 L 33.332031 29.929688 C 33.351562 29.917969 33.371094 29.914062 33.394531 29.914062 C 33.347656 29.632812 33.304688 29.351562 33.265625 29.0625 C 33.230469 28.777344 33.199219 28.488281 33.179688 28.207031 C 33.148438 28.203125 33.117188 28.195312 33.085938 28.191406 C 33.164062 28.8125 33.246094 29.394531 33.324219 29.933594 " fill-opacity="1" fill-rule="nonzero"/><path fill="#40b93c" d="M 38.492188 31.265625 C 37.953125 30.679688 37.339844 30.128906 36.65625 29.648438 C 35.972656 29.171875 35.242188 28.800781 34.507812 28.539062 C 34.335938 28.480469 34.160156 28.425781 33.984375 28.378906 C 34.003906 28.574219 34.027344 28.769531 34.050781 28.964844 C 34.234375 30.378906 34.503906 31.722656 34.792969 32.949219 C 34.84375 33.046875 34.890625 33.140625 34.9375 33.226562 C 34.984375 33.316406 34.9375 33.425781 34.84375 33.457031 L 33.898438 33.75 C 33.902344 33.777344 33.90625 33.792969 33.90625 33.792969 C 33.90625 33.792969 33.902344 33.777344 33.894531 33.75 L 33.789062 33.785156 C 33.695312 33.8125 33.597656 33.75 33.585938 33.65625 C 33.574219 33.535156 33.550781 33.40625 33.523438 33.265625 C 33.492188 33.128906 33.460938 32.980469 33.417969 32.832031 C 33.359375 32.621094 33.292969 32.402344 33.21875 32.1875 C 33.0625 31.824219 32.898438 31.445312 32.722656 31.058594 C 32.300781 30.117188 31.816406 29.121094 31.257812 28.109375 C 31.25 28.113281 31.242188 28.113281 31.234375 28.113281 C 30.886719 28.136719 30.554688 28.175781 30.230469 28.230469 C 29.910156 28.289062 29.605469 28.363281 29.3125 28.441406 C 29.019531 28.527344 28.742188 28.621094 28.480469 28.722656 C 28.109375 28.867188 27.777344 29.023438 27.476562 29.1875 C 28.023438 29.425781 28.554688 29.71875 29.058594 30.070312 C 29.808594 30.597656 30.460938 31.207031 31.023438 31.851562 C 31.582031 32.496094 32.050781 33.171875 32.445312 33.839844 C 33.027344 34.835938 33.449219 35.8125 33.757812 36.703125 C 33.855469 36.414062 33.976562 36.101562 34.121094 35.765625 C 33.984375 35.21875 33.839844 34.75 33.75 34.480469 C 33.703125 34.335938 33.789062 34.183594 33.933594 34.140625 L 34.929688 33.84375 C 35.039062 33.808594 35.15625 33.851562 35.21875 33.941406 C 35.234375 33.929688 35.246094 33.914062 35.261719 33.898438 C 35.316406 33.84375 35.378906 33.792969 35.445312 33.742188 C 35.511719 33.695312 35.574219 33.640625 35.648438 33.597656 C 35.929688 33.417969 36.257812 33.296875 36.601562 33.238281 C 37.289062 33.125 38.027344 33.25 38.695312 33.582031 C 38.777344 33.628906 38.863281 33.667969 38.941406 33.71875 C 38.988281 33.746094 39.035156 33.777344 39.082031 33.804688 C 39.21875 33.363281 39.363281 32.933594 39.511719 32.515625 C 39.203125 32.089844 38.863281 31.671875 38.492188 31.265625 " fill-opacity="1" fill-rule="nonzero"/><g clip-path="url(#id1)"><path fill="#40b93c" d="M 34.460938 14.277344 C 34.417969 14.375 34.371094 14.476562 34.324219 14.574219 C 34.226562 14.777344 34.144531 15 34.046875 15.230469 C 34.023438 15.289062 34 15.347656 33.976562 15.402344 C 33.953125 15.464844 33.933594 15.523438 33.910156 15.585938 C 33.867188 15.710938 33.820312 15.835938 33.777344 15.960938 L 33.742188 16.058594 L 33.710938 16.15625 C 33.691406 16.222656 33.671875 16.289062 33.648438 16.355469 C 33.609375 16.488281 33.5625 16.625 33.523438 16.765625 C 33.449219 17.046875 33.359375 17.335938 33.296875 17.636719 C 33.261719 17.789062 33.222656 17.941406 33.191406 18.097656 C 33.160156 18.253906 33.128906 18.414062 33.097656 18.574219 C 33.0625 18.734375 33.042969 18.898438 33.015625 19.0625 C 32.988281 19.226562 32.957031 19.394531 32.941406 19.566406 C 32.917969 19.734375 32.894531 19.90625 32.871094 20.078125 C 32.855469 20.253906 32.839844 20.429688 32.820312 20.605469 C 32.757812 21.3125 32.722656 22.050781 32.714844 22.804688 C 32.714844 24.316406 32.816406 25.761719 32.957031 27.074219 C 32.96875 27.175781 32.980469 27.277344 32.992188 27.378906 C 33.035156 27.382812 33.082031 27.386719 33.128906 27.390625 C 33.121094 27.1875 33.113281 26.988281 33.109375 26.789062 C 33.109375 26.605469 33.113281 26.421875 33.113281 26.242188 C 33.117188 26.058594 33.125 25.882812 33.132812 25.703125 C 33.136719 25.527344 33.152344 25.351562 33.167969 25.179688 C 33.183594 25.003906 33.191406 24.832031 33.214844 24.664062 C 33.234375 24.496094 33.253906 24.332031 33.273438 24.167969 C 33.296875 24.003906 33.328125 23.84375 33.351562 23.683594 C 33.398438 23.367188 33.472656 23.0625 33.53125 22.769531 C 33.566406 22.621094 33.605469 22.480469 33.640625 22.339844 C 33.660156 22.269531 33.679688 22.199219 33.695312 22.128906 L 33.722656 22.027344 L 33.753906 21.925781 C 33.796875 21.796875 33.839844 21.664062 33.878906 21.535156 C 33.898438 21.472656 33.917969 21.410156 33.9375 21.347656 C 33.960938 21.285156 33.984375 21.226562 34.003906 21.164062 C 34.097656 20.925781 34.175781 20.695312 34.269531 20.488281 C 34.316406 20.382812 34.359375 20.28125 34.402344 20.179688 C 34.425781 20.132812 34.445312 20.082031 34.46875 20.035156 C 34.492188 19.988281 34.515625 19.941406 34.535156 19.898438 C 34.628906 19.714844 34.710938 19.546875 34.789062 19.394531 C 34.875 19.246094 34.953125 19.109375 35.027344 18.984375 C 35.0625 18.925781 35.09375 18.867188 35.128906 18.8125 C 35.160156 18.761719 35.195312 18.710938 35.222656 18.664062 C 35.285156 18.574219 35.335938 18.496094 35.375 18.433594 C 35.457031 18.3125 35.5 18.246094 35.5 18.246094 C 35.5 18.246094 35.46875 18.320312 35.40625 18.453125 C 35.371094 18.519531 35.332031 18.601562 35.289062 18.699219 C 35.265625 18.75 35.238281 18.800781 35.214844 18.855469 C 35.1875 18.914062 35.164062 18.976562 35.136719 19.042969 C 35.082031 19.171875 35.023438 19.316406 34.957031 19.472656 C 34.894531 19.628906 34.835938 19.804688 34.769531 19.992188 C 34.75 20.039062 34.734375 20.085938 34.714844 20.132812 C 34.699219 20.183594 34.6875 20.234375 34.667969 20.285156 C 34.636719 20.386719 34.605469 20.488281 34.574219 20.597656 C 34.5 20.808594 34.449219 21.039062 34.382812 21.28125 C 34.367188 21.339844 34.351562 21.402344 34.335938 21.460938 C 34.324219 21.523438 34.308594 21.589844 34.296875 21.652344 C 34.265625 21.777344 34.238281 21.910156 34.210938 22.039062 L 34.1875 22.140625 L 34.171875 22.242188 C 34.160156 22.308594 34.148438 22.378906 34.136719 22.449219 C 34.113281 22.585938 34.085938 22.726562 34.0625 22.871094 C 34.027344 23.160156 33.976562 23.457031 33.953125 23.765625 C 33.941406 23.921875 33.921875 24.078125 33.910156 24.234375 C 33.898438 24.394531 33.890625 24.558594 33.878906 24.71875 C 33.867188 24.882812 33.867188 25.046875 33.859375 25.214844 C 33.855469 25.382812 33.847656 25.550781 33.851562 25.722656 C 33.851562 25.894531 33.851562 26.066406 33.851562 26.242188 C 33.855469 26.417969 33.863281 26.59375 33.867188 26.769531 C 33.878906 27.011719 33.894531 27.257812 33.910156 27.503906 C 34.199219 27.558594 34.488281 27.628906 34.777344 27.722656 C 35.605469 27.988281 36.417969 28.386719 37.171875 28.910156 C 37.917969 29.4375 38.574219 30.046875 39.136719 30.691406 C 39.394531 30.992188 39.636719 31.300781 39.859375 31.609375 C 39.882812 31.550781 39.90625 31.492188 39.929688 31.4375 C 39.921875 31.425781 39.914062 31.410156 39.910156 31.398438 C 39.824219 31.238281 39.746094 31.082031 39.660156 30.9375 C 39.578125 30.796875 39.5 30.660156 39.417969 30.523438 C 39.269531 30.253906 39.113281 30.023438 38.984375 29.816406 C 38.917969 29.714844 38.859375 29.617188 38.800781 29.53125 C 38.742188 29.445312 38.6875 29.367188 38.640625 29.292969 C 38.453125 29.023438 38.335938 28.851562 38.335938 28.851562 C 38.335938 28.851562 38.476562 29.003906 38.699219 29.246094 C 38.757812 29.3125 38.824219 29.386719 38.890625 29.460938 C 38.960938 29.542969 39.03125 29.632812 39.109375 29.726562 C 39.261719 29.921875 39.445312 30.136719 39.621094 30.390625 C 39.714844 30.519531 39.808594 30.652344 39.90625 30.789062 C 39.96875 30.875 40.027344 30.96875 40.085938 31.0625 C 40.09375 31.050781 40.097656 31.035156 40.105469 31.023438 C 40.316406 30.539062 40.535156 30.070312 40.761719 29.628906 C 40.6875 29.449219 40.613281 29.289062 40.546875 29.136719 C 40.5 29.023438 40.453125 28.917969 40.410156 28.824219 C 40.367188 28.734375 40.324219 28.648438 40.285156 28.566406 C 40.140625 28.269531 40.050781 28.082031 40.050781 28.082031 C 40.050781 28.082031 40.167969 28.257812 40.351562 28.53125 C 40.398438 28.605469 40.453125 28.683594 40.507812 28.769531 C 40.566406 28.859375 40.621094 28.960938 40.683594 29.066406 C 40.746094 29.171875 40.8125 29.285156 40.878906 29.402344 C 41.007812 29.160156 41.136719 28.921875 41.269531 28.695312 C 41.671875 27.988281 42.09375 27.355469 42.5 26.792969 C 43.316406 25.675781 44.078125 24.859375 44.625 24.324219 C 44.761719 24.191406 44.886719 24.074219 44.992188 23.96875 C 45.101562 23.867188 45.195312 23.785156 45.269531 23.71875 C 45.417969 23.585938 45.496094 23.511719 45.496094 23.511719 C 45.496094 23.511719 45.429688 23.597656 45.300781 23.75 C 45.238281 23.828125 45.15625 23.921875 45.066406 24.039062 C 44.972656 24.152344 44.867188 24.285156 44.75 24.433594 C 44.28125 25.035156 43.632812 25.925781 42.949219 27.089844 C 42.410156 28 41.859375 29.082031 41.351562 30.3125 C 41.414062 30.441406 41.472656 30.578125 41.535156 30.714844 C 41.570312 30.800781 41.609375 30.886719 41.648438 30.96875 C 41.664062 31.011719 41.6875 31.058594 41.703125 31.101562 L 41.757812 31.238281 C 41.828125 31.425781 41.902344 31.613281 41.972656 31.800781 C 42.246094 32.574219 42.496094 33.453125 42.667969 34.390625 C 42.800781 35.148438 42.875 35.882812 42.90625 36.574219 C 42.941406 36.257812 42.988281 35.929688 43.046875 35.589844 C 43.144531 35.039062 43.28125 34.460938 43.480469 33.875 C 43.675781 33.300781 43.941406 32.722656 44.273438 32.171875 C 44.25 32.125 44.226562 32.082031 44.203125 32.039062 C 44.085938 31.8125 43.984375 31.597656 43.871094 31.398438 C 43.765625 31.203125 43.667969 31.015625 43.570312 30.847656 C 43.476562 30.679688 43.386719 30.527344 43.308594 30.390625 C 43.265625 30.320312 43.230469 30.253906 43.195312 30.195312 C 43.15625 30.132812 43.121094 30.078125 43.089844 30.023438 C 43.027344 29.921875 42.972656 29.832031 42.929688 29.761719 C 42.84375 29.617188 42.796875 29.539062 42.796875 29.539062 C 42.796875 29.539062 42.851562 29.609375 42.960938 29.738281 C 43.015625 29.804688 43.082031 29.882812 43.160156 29.976562 C 43.199219 30.027344 43.238281 30.078125 43.285156 30.132812 C 43.328125 30.1875 43.375 30.246094 43.421875 30.3125 C 43.519531 30.4375 43.628906 30.582031 43.746094 30.734375 C 43.863281 30.890625 43.980469 31.066406 44.113281 31.253906 C 44.238281 31.425781 44.363281 31.617188 44.496094 31.820312 C 44.605469 31.652344 44.71875 31.492188 44.839844 31.335938 C 45.03125 31.082031 45.234375 30.839844 45.445312 30.613281 C 45.667969 30.375 45.898438 30.152344 46.128906 29.945312 C 46.109375 29.914062 46.089844 29.886719 46.070312 29.855469 C 46.011719 29.769531 45.957031 29.691406 45.910156 29.621094 C 45.722656 29.347656 45.605469 29.175781 45.605469 29.175781 C 45.605469 29.175781 45.746094 29.328125 45.96875 29.574219 C 46.027344 29.640625 46.089844 29.710938 46.160156 29.789062 C 46.179688 29.8125 46.203125 29.835938 46.222656 29.863281 C 46.402344 29.707031 46.582031 29.5625 46.761719 29.425781 C 47.023438 29.226562 47.285156 29.046875 47.546875 28.878906 C 47.410156 28.589844 47.320312 28.410156 47.320312 28.410156 C 47.320312 28.410156 47.433594 28.574219 47.609375 28.839844 C 48.21875 28.460938 48.8125 28.171875 49.347656 27.957031 C 50.128906 27.640625 50.789062 27.46875 51.246094 27.367188 C 51.476562 27.316406 51.652344 27.285156 51.777344 27.265625 C 51.894531 27.246094 51.960938 27.234375 51.960938 27.234375 C 51.960938 27.234375 51.898438 27.253906 51.78125 27.292969 C 51.664062 27.328125 51.492188 27.386719 51.273438 27.464844 C 50.839844 27.621094 50.214844 27.871094 49.484375 28.253906 C 48.984375 28.515625 48.433594 28.847656 47.871094 29.253906 C 47.898438 29.296875 47.925781 29.34375 47.953125 29.390625 C 48.078125 29.605469 48.226562 29.84375 48.363281 30.125 C 48.433594 30.265625 48.507812 30.410156 48.582031 30.558594 C 48.660156 30.710938 48.726562 30.875 48.804688 31.039062 C 48.839844 31.125 48.878906 31.210938 48.917969 31.296875 C 48.933594 31.339844 48.957031 31.382812 48.972656 31.425781 L 49.027344 31.5625 C 49.097656 31.75 49.167969 31.9375 49.242188 32.125 C 49.515625 32.902344 49.765625 33.777344 49.9375 34.714844 C 49.992188 35.027344 50.035156 35.335938 50.070312 35.640625 C 50.203125 35.515625 50.328125 35.398438 50.441406 35.289062 C 50.523438 34.933594 50.625 34.566406 50.75 34.199219 C 50.949219 33.613281 51.21875 33.027344 51.558594 32.464844 C 51.730469 32.183594 51.914062 31.914062 52.109375 31.660156 C 52.304688 31.40625 52.503906 31.164062 52.714844 30.941406 C 53.136719 30.488281 53.582031 30.09375 54.03125 29.75 C 54.929688 29.070312 55.832031 28.597656 56.613281 28.28125 C 57.398438 27.964844 58.058594 27.792969 58.515625 27.691406 C 58.746094 27.644531 58.921875 27.609375 59.042969 27.589844 C 59.164062 27.570312 59.230469 27.558594 59.230469 27.558594 C 59.230469 27.558594 59.167969 27.582031 59.050781 27.617188 C 58.933594 27.652344 58.761719 27.710938 58.542969 27.789062 C 58.105469 27.949219 57.480469 28.195312 56.753906 28.578125 C 56.023438 28.960938 55.195312 29.484375 54.375 30.179688 C 53.558594 30.878906 52.753906 31.75 52.121094 32.804688 C 51.800781 33.328125 51.542969 33.867188 51.339844 34.410156 C 51.332031 34.433594 51.324219 34.457031 51.3125 34.480469 C 51.492188 34.320312 51.585938 34.234375 51.585938 34.234375 C 51.585938 34.234375 51.46875 34.378906 51.261719 34.632812 C 51.09375 35.101562 50.964844 35.570312 50.859375 36.027344 C 50.742188 36.511719 50.652344 36.984375 50.578125 37.433594 C 50.699219 37.066406 50.847656 36.6875 51.035156 36.3125 C 51.191406 36 51.375 35.695312 51.585938 35.398438 C 51.644531 35.261719 51.710938 35.125 51.777344 34.988281 C 52.054688 34.433594 52.402344 33.886719 52.8125 33.375 C 53.019531 33.117188 53.238281 32.878906 53.464844 32.652344 C 53.691406 32.425781 53.921875 32.214844 54.160156 32.019531 C 54.636719 31.628906 55.132812 31.296875 55.625 31.015625 C 56.605469 30.460938 57.566406 30.117188 58.382812 29.90625 C 59.199219 29.695312 59.878906 29.613281 60.34375 29.574219 C 60.578125 29.558594 60.757812 29.546875 60.882812 29.546875 C 61.003906 29.542969 61.070312 29.539062 61.070312 29.539062 C 61.070312 29.539062 61.003906 29.554688 60.886719 29.574219 C 60.765625 29.59375 60.585938 29.628906 60.359375 29.675781 C 59.90625 29.777344 59.253906 29.9375 58.480469 30.21875 C 57.707031 30.5 56.8125 30.910156 55.910156 31.488281 C 55.078125 32.027344 54.234375 32.714844 53.503906 33.566406 C 53.660156 33.464844 53.816406 33.367188 53.972656 33.28125 C 54.722656 32.855469 55.453125 32.59375 56.078125 32.433594 C 56.703125 32.273438 57.21875 32.207031 57.578125 32.179688 C 57.753906 32.167969 57.894531 32.160156 57.988281 32.15625 C 58.078125 32.15625 58.128906 32.152344 58.128906 32.152344 C 58.128906 32.152344 58.082031 32.164062 57.988281 32.179688 C 57.898438 32.195312 57.761719 32.21875 57.585938 32.257812 C 57.242188 32.332031 56.742188 32.457031 56.152344 32.671875 C 55.5625 32.886719 54.882812 33.199219 54.191406 33.640625 C 53.5625 34.046875 52.925781 34.566406 52.371094 35.210938 C 52.359375 35.230469 52.347656 35.253906 52.335938 35.273438 C 52.0625 35.789062 51.832031 36.304688 51.640625 36.8125 C 51.449219 37.316406 51.285156 37.808594 51.140625 38.273438 C 50.996094 38.738281 50.871094 39.171875 50.757812 39.574219 C 50.753906 39.582031 50.753906 39.585938 50.75 39.59375 C 50.730469 39.832031 50.714844 40.101562 50.699219 40.386719 C 50.664062 40.945312 50.652344 41.542969 50.695312 41.96875 C 50.703125 42.050781 50.632812 42.125 50.550781 42.117188 L 50.105469 42.078125 C 50.085938 42.144531 50.078125 42.179688 50.078125 42.179688 C 50.078125 42.179688 50.082031 42.144531 50.089844 42.078125 L 49.605469 42.035156 C 49.519531 42.027344 49.464844 41.945312 49.488281 41.863281 C 49.601562 41.460938 49.671875 40.871094 49.722656 40.320312 C 49.734375 40.167969 49.746094 40.019531 49.753906 39.875 C 49.75 39.855469 49.75 39.835938 49.746094 39.816406 C 49.726562 39.660156 49.703125 39.503906 49.683594 39.339844 C 49.660156 39.175781 49.628906 39.003906 49.597656 38.828125 C 49.585938 38.738281 49.570312 38.648438 49.554688 38.554688 C 49.546875 38.511719 49.539062 38.464844 49.53125 38.417969 L 49.5 38.277344 C 49.460938 38.085938 49.421875 37.894531 49.382812 37.699219 C 49.335938 37.503906 49.289062 37.300781 49.238281 37.09375 C 49.203125 37.132812 49.171875 37.171875 49.140625 37.214844 C 48.691406 37.765625 48.195312 38.386719 47.679688 39.070312 C 47.84375 39.675781 47.988281 40.304688 48.117188 40.945312 C 48.285156 41.8125 48.414062 42.660156 48.507812 43.484375 C 48.601562 44.308594 48.652344 45.105469 48.683594 45.863281 C 48.691406 46.054688 48.699219 46.242188 48.703125 46.425781 C 48.707031 46.609375 48.710938 46.792969 48.710938 46.972656 C 48.710938 47.007812 48.710938 47.042969 48.714844 47.078125 C 48.773438 47.011719 48.867188 46.972656 48.964844 46.988281 L 49.9375 47.117188 C 49.957031 47.011719 49.972656 46.902344 49.992188 46.789062 L 48.933594 46.648438 C 48.820312 46.632812 48.75 46.519531 48.785156 46.414062 C 48.878906 46.144531 48.953125 45.816406 49.019531 45.460938 C 49.085938 45.109375 49.148438 44.726562 49.191406 44.359375 C 49.238281 43.992188 49.273438 43.636719 49.300781 43.328125 C 49.324219 43.019531 49.339844 42.757812 49.351562 42.585938 C 49.355469 42.453125 49.472656 42.355469 49.601562 42.367188 L 50.492188 42.449219 C 50.621094 42.460938 50.714844 42.578125 50.699219 42.710938 C 50.675781 42.886719 50.644531 43.148438 50.609375 43.457031 C 50.589844 43.644531 50.5625 43.84375 50.542969 44.054688 C 50.6875 43.429688 50.863281 42.769531 51.082031 42.089844 C 51.328125 41.304688 51.644531 40.492188 52.046875 39.679688 C 52.449219 38.867188 52.960938 38.0625 53.566406 37.3125 C 53.867188 36.933594 54.191406 36.585938 54.519531 36.25 C 54.855469 35.917969 55.195312 35.605469 55.546875 35.320312 C 56.246094 34.746094 56.972656 34.257812 57.691406 33.847656 C 59.136719 33.03125 60.542969 32.527344 61.742188 32.21875 C 62.945312 31.910156 63.941406 31.789062 64.625 31.730469 C 64.96875 31.707031 65.234375 31.691406 65.414062 31.6875 C 65.59375 31.683594 65.691406 31.679688 65.691406 31.679688 C 65.691406 31.679688 65.597656 31.699219 65.421875 31.730469 C 65.242188 31.757812 64.980469 31.808594 64.648438 31.882812 C 63.980469 32.027344 63.023438 32.261719 61.886719 32.675781 C 60.753906 33.089844 59.441406 33.691406 58.113281 34.542969 C 56.789062 35.398438 55.441406 36.507812 54.3125 37.914062 C 53.75 38.617188 53.265625 39.351562 52.863281 40.101562 C 52.460938 40.855469 52.128906 41.613281 51.847656 42.359375 C 51.5625 43.097656 51.324219 43.820312 51.113281 44.503906 C 50.898438 45.1875 50.710938 45.828125 50.546875 46.414062 C 50.457031 46.726562 50.375 47.023438 50.296875 47.300781 C 50.324219 47.355469 50.332031 47.414062 50.324219 47.476562 C 50.300781 47.605469 50.273438 47.769531 50.238281 47.964844 C 50.34375 48.03125 50.445312 48.101562 50.542969 48.171875 C 50.863281 48.414062 51.136719 48.671875 51.390625 48.921875 C 51.4375 48.964844 51.480469 49.007812 51.523438 49.050781 C 51.789062 48.425781 52.097656 47.769531 52.472656 47.105469 C 52.863281 46.402344 53.328125 45.691406 53.871094 45 C 54.410156 44.304688 55.03125 43.640625 55.714844 43.007812 C 56.394531 42.375 57.105469 41.8125 57.816406 41.308594 C 58.527344 40.804688 59.238281 40.363281 59.929688 39.964844 C 61.308594 39.175781 62.605469 38.570312 63.699219 38.09375 C 64.796875 37.617188 65.695312 37.265625 66.320312 37.023438 C 66.941406 36.785156 67.289062 36.660156 67.289062 36.660156 C 67.289062 36.660156 66.949219 36.84375 66.378906 37.15625 C 65.792969 37.476562 64.945312 37.933594 63.90625 38.511719 C 62.871094 39.089844 61.644531 39.792969 60.339844 40.640625 C 59.6875 41.0625 59.015625 41.523438 58.34375 42.03125 C 57.671875 42.539062 56.996094 43.089844 56.347656 43.691406 C 55.699219 44.296875 55.097656 44.921875 54.566406 45.5625 C 54.03125 46.203125 53.5625 46.859375 53.148438 47.507812 C 52.734375 48.160156 52.375 48.804688 52.058594 49.417969 C 52.039062 49.453125 52.019531 49.492188 52.003906 49.527344 C 52.039062 49.5625 52.074219 49.597656 52.109375 49.632812 C 52.273438 49.800781 52.4375 49.960938 52.589844 50.117188 C 52.769531 49.855469 52.957031 49.59375 53.15625 49.335938 C 53.738281 48.585938 54.425781 47.84375 55.273438 47.234375 C 55.699219 46.929688 56.152344 46.671875 56.625 46.472656 C 57.105469 46.265625 57.609375 46.136719 58.109375 46.074219 C 59.105469 45.949219 60.101562 46.09375 60.953125 46.496094 C 61.375 46.695312 61.757812 46.964844 62.074219 47.285156 C 62.230469 47.441406 62.371094 47.613281 62.492188 47.789062 C 62.617188 47.96875 62.71875 48.148438 62.808594 48.328125 C 62.988281 48.6875 63.117188 49.042969 63.230469 49.375 C 63.34375 49.707031 63.449219 50.027344 63.554688 50.332031 C 64.0625 51.867188 64.433594 53.039062 64.636719 53.699219 C 67.15625 49.632812 68.609375 44.839844 68.609375 39.710938 C 68.609375 25.015625 56.695312 13.105469 42.003906 13.105469 C 39.398438 13.105469 36.886719 13.480469 34.507812 14.175781 C 34.492188 14.207031 34.476562 14.242188 34.460938 14.277344 " fill-opacity="1" fill-rule="nonzero"/></g><path fill="#40b93c" d="M 33.175781 16.183594 C 33.203125 16.117188 33.230469 16.050781 33.253906 15.984375 L 33.339844 15.789062 C 33.398438 15.664062 33.457031 15.539062 33.511719 15.417969 C 33.542969 15.355469 33.570312 15.296875 33.597656 15.238281 C 33.628906 15.179688 33.65625 15.121094 33.6875 15.066406 C 33.808594 14.839844 33.917969 14.625 34.039062 14.429688 C 34.066406 14.382812 34.09375 14.335938 34.121094 14.292969 C 30.339844 15.460938 26.917969 17.457031 24.066406 20.0625 C 24.140625 20.09375 24.222656 20.125 24.304688 20.160156 C 24.464844 20.230469 24.632812 20.3125 24.8125 20.398438 C 24.859375 20.421875 24.90625 20.441406 24.953125 20.464844 C 25 20.488281 25.046875 20.515625 25.09375 20.539062 C 25.191406 20.59375 25.289062 20.648438 25.386719 20.703125 C 25.59375 20.808594 25.792969 20.941406 26.011719 21.074219 C 26.066406 21.105469 26.121094 21.140625 26.175781 21.175781 C 26.230469 21.210938 26.285156 21.25 26.339844 21.289062 C 26.453125 21.363281 26.566406 21.441406 26.679688 21.519531 L 26.851562 21.644531 C 26.90625 21.6875 26.964844 21.730469 27.019531 21.777344 C 27.136719 21.863281 27.253906 21.953125 27.371094 22.046875 C 27.601562 22.242188 27.84375 22.4375 28.078125 22.660156 C 28.195312 22.769531 28.316406 22.875 28.433594 22.992188 C 28.550781 23.109375 28.667969 23.226562 28.789062 23.347656 C 28.910156 23.464844 29.023438 23.597656 29.140625 23.722656 C 29.257812 23.851562 29.378906 23.980469 29.488281 24.117188 C 29.605469 24.253906 29.722656 24.390625 29.835938 24.527344 C 29.949219 24.671875 30.0625 24.816406 30.175781 24.960938 C 30.621094 25.546875 31.050781 26.179688 31.449219 26.851562 C 31.550781 27.023438 31.652344 27.195312 31.746094 27.367188 C 31.933594 27.355469 32.125 27.351562 32.316406 27.351562 C 32.320312 27.351562 32.324219 27.351562 32.328125 27.351562 C 32.316406 27.289062 32.304688 27.226562 32.296875 27.164062 C 32.078125 25.839844 31.921875 24.363281 31.925781 22.800781 C 31.929688 22.019531 31.980469 21.257812 32.066406 20.523438 C 32.09375 20.34375 32.117188 20.164062 32.140625 19.980469 C 32.171875 19.804688 32.199219 19.628906 32.230469 19.449219 C 32.257812 19.277344 32.296875 19.105469 32.332031 18.933594 C 32.371094 18.765625 32.402344 18.597656 32.445312 18.433594 C 32.488281 18.269531 32.53125 18.109375 32.570312 17.949219 C 32.613281 17.789062 32.664062 17.632812 32.710938 17.480469 C 32.796875 17.171875 32.910156 16.878906 33.007812 16.59375 C 33.0625 16.453125 33.121094 16.316406 33.175781 16.183594 " fill-opacity="1" fill-rule="nonzero"/><path fill="#40b93c" d="M 40.789062 32.238281 C 41.175781 32.964844 41.554688 33.792969 41.867188 34.695312 C 42.167969 35.597656 42.375 36.484375 42.515625 37.296875 C 42.519531 37.335938 42.527344 37.375 42.53125 37.414062 C 42.523438 37.300781 42.519531 37.1875 42.511719 37.078125 C 42.453125 36.269531 42.351562 35.390625 42.191406 34.476562 C 42.023438 33.5625 41.808594 32.703125 41.582031 31.925781 C 41.523438 31.738281 41.464844 31.550781 41.40625 31.363281 L 41.363281 31.226562 C 41.351562 31.183594 41.332031 31.140625 41.316406 31.09375 C 41.289062 31.007812 41.257812 30.921875 41.226562 30.835938 C 41.210938 30.800781 41.199219 30.761719 41.1875 30.722656 C 41.105469 30.933594 41.023438 31.144531 40.945312 31.359375 C 40.859375 31.59375 40.773438 31.828125 40.691406 32.066406 C 40.726562 32.125 40.757812 32.179688 40.789062 32.238281 " fill-opacity="1" fill-rule="nonzero"/><path fill="#40b93c" d="M 45.332031 48.261719 C 46.164062 47.703125 47.117188 47.386719 48.050781 47.363281 C 47.921875 45.511719 47.683594 43.371094 47.238281 41.121094 C 47.164062 40.738281 47.082031 40.359375 46.996094 39.988281 C 46.871094 40.160156 46.746094 40.335938 46.621094 40.515625 C 46.171875 41.152344 45.71875 41.832031 45.285156 42.550781 C 44.851562 43.273438 44.429688 44.035156 44.054688 44.835938 C 43.855469 45.25 43.675781 45.667969 43.511719 46.082031 C 43.617188 46.132812 43.691406 46.242188 43.683594 46.367188 C 43.675781 46.59375 43.664062 46.925781 43.644531 47.324219 C 43.640625 47.523438 43.632812 47.738281 43.625 47.960938 C 43.621094 48.1875 43.617188 48.421875 43.613281 48.660156 C 43.605469 49.121094 43.609375 49.59375 43.621094 50.042969 C 43.792969 49.773438 43.980469 49.519531 44.183594 49.277344 C 44.519531 48.878906 44.914062 48.539062 45.332031 48.261719 " fill-opacity="1" fill-rule="nonzero"/><g clip-path="url(#id2)"><path fill="#40b93c" d="M 37.550781 54.597656 C 37.527344 54.960938 37.496094 55.5 37.46875 56.140625 C 37.441406 56.78125 37.410156 57.523438 37.398438 58.296875 C 37.382812 59.066406 37.371094 59.863281 37.394531 60.613281 C 37.410156 61.363281 37.453125 62.0625 37.535156 62.644531 C 37.570312 62.875 37.378906 63.078125 37.148438 63.066406 L 34.535156 62.933594 C 34.300781 62.921875 34.140625 62.703125 34.191406 62.476562 C 34.328125 61.914062 34.4375 61.226562 34.523438 60.488281 C 34.601562 59.75 34.664062 58.960938 34.699219 58.199219 C 34.734375 57.4375 34.761719 56.699219 34.765625 56.0625 C 34.773438 55.425781 34.769531 54.890625 34.765625 54.53125 C 34.761719 54.261719 34.980469 54.046875 35.253906 54.050781 L 37.085938 54.089844 C 37.355469 54.097656 37.566406 54.328125 37.550781 54.597656 Z M 33.425781 51.765625 C 33.253906 51.175781 33.054688 50.558594 32.828125 49.9375 C 32.59375 49.320312 32.324219 48.699219 31.953125 48.140625 C 31.765625 47.859375 31.558594 47.605469 31.332031 47.378906 C 31.21875 47.269531 31.097656 47.164062 30.976562 47.074219 C 30.917969 47.027344 30.851562 46.988281 30.789062 46.941406 C 30.722656 46.902344 30.65625 46.867188 30.589844 46.828125 C 30.054688 46.539062 29.453125 46.414062 28.90625 46.472656 C 28.636719 46.503906 28.378906 46.582031 28.15625 46.707031 C 28.097656 46.730469 28.046875 46.769531 27.992188 46.804688 C 27.941406 46.835938 27.886719 46.875 27.839844 46.914062 C 27.742188 46.996094 27.652344 47.085938 27.566406 47.183594 C 27.398438 47.375 27.25 47.585938 27.113281 47.796875 C 26.972656 48.007812 26.847656 48.214844 26.730469 48.417969 C 26.265625 49.21875 25.972656 49.921875 25.785156 50.410156 C 25.691406 50.65625 25.625 50.847656 25.582031 50.980469 C 25.539062 51.109375 25.515625 51.179688 25.515625 51.179688 C 25.515625 51.179688 25.527344 51.105469 25.550781 50.972656 C 25.574219 50.835938 25.613281 50.632812 25.675781 50.375 C 25.796875 49.863281 26.007812 49.117188 26.402344 48.246094 C 26.503906 48.03125 26.613281 47.804688 26.734375 47.574219 C 26.859375 47.34375 26.996094 47.101562 27.175781 46.863281 C 27.265625 46.746094 27.367188 46.628906 27.480469 46.515625 C 27.539062 46.460938 27.597656 46.410156 27.664062 46.359375 C 27.730469 46.3125 27.792969 46.257812 27.867188 46.21875 C 28.148438 46.039062 28.476562 45.914062 28.820312 45.855469 C 29.507812 45.742188 30.246094 45.867188 30.914062 46.199219 C 30.996094 46.246094 31.082031 46.285156 31.160156 46.335938 C 31.242188 46.386719 31.324219 46.433594 31.398438 46.492188 C 31.554688 46.601562 31.703125 46.722656 31.839844 46.855469 C 32.113281 47.117188 32.355469 47.414062 32.566406 47.730469 C 32.992188 48.367188 33.269531 49.046875 33.492188 49.703125 C 33.710938 50.359375 33.886719 50.992188 34.03125 51.609375 C 34.316406 52.832031 34.46875 53.957031 34.554688 54.898438 C 34.640625 55.84375 34.65625 56.609375 34.65625 57.136719 C 34.660156 57.402344 34.65625 57.605469 34.652344 57.746094 C 34.648438 57.878906 34.648438 57.957031 34.648438 57.957031 C 34.648438 57.957031 34.636719 57.882812 34.621094 57.746094 C 34.605469 57.609375 34.578125 57.40625 34.542969 57.144531 C 34.472656 56.625 34.363281 55.871094 34.1875 54.949219 C 34.011719 54.03125 33.773438 52.945312 33.425781 51.765625 Z M 63.085938 50.515625 C 62.953125 50.21875 62.816406 49.914062 62.675781 49.597656 C 62.535156 49.28125 62.386719 48.960938 62.203125 48.660156 C 62.023438 48.355469 61.808594 48.078125 61.539062 47.84375 C 61.273438 47.609375 60.957031 47.414062 60.605469 47.273438 C 59.902344 46.984375 59.070312 46.898438 58.238281 47.03125 C 57.824219 47.09375 57.414062 47.210938 57.019531 47.386719 C 56.621094 47.5625 56.230469 47.789062 55.859375 48.054688 C 55.117188 48.585938 54.476562 49.246094 53.910156 49.9375 C 53.679688 50.214844 53.460938 50.5 53.253906 50.789062 C 54.371094 51.925781 55.011719 52.609375 55.011719 52.609375 C 55.011719 52.609375 54.28125 52.042969 53.0625 51.058594 C 52.953125 51.210938 52.847656 51.367188 52.738281 51.519531 C 52.621094 51.695312 52.503906 51.871094 52.386719 52.046875 C 51.933594 52.746094 51.527344 53.429688 51.171875 54.085938 C 50.820312 54.738281 50.511719 55.363281 50.246094 55.941406 C 49.714844 57.097656 49.359375 58.070312 49.125 58.746094 C 49.066406 58.914062 49.015625 59.066406 48.972656 59.195312 C 48.929688 59.328125 48.894531 59.441406 48.863281 59.53125 C 48.808594 59.707031 48.777344 59.804688 48.777344 59.804688 C 48.777344 59.804688 48.792969 59.703125 48.824219 59.519531 C 48.839844 59.425781 48.859375 59.308594 48.878906 59.175781 C 48.90625 59.039062 48.9375 58.878906 48.972656 58.703125 C 49.117188 58 49.355469 56.980469 49.777344 55.753906 C 49.988281 55.144531 50.246094 54.480469 50.558594 53.78125 C 50.867188 53.082031 51.234375 52.351562 51.664062 51.601562 C 51.769531 51.417969 51.882812 51.230469 51.996094 51.039062 C 52.113281 50.855469 52.230469 50.667969 52.347656 50.480469 C 52.164062 50.328125 51.96875 50.171875 51.769531 50.003906 C 51.765625 50.003906 51.765625 50.003906 51.765625 50.003906 C 51.566406 50.40625 51.386719 50.792969 51.222656 51.15625 C 51.164062 51.292969 51.105469 51.425781 51.046875 51.554688 C 50.992188 51.683594 50.9375 51.808594 50.882812 51.929688 C 50.78125 52.179688 50.679688 52.410156 50.589844 52.628906 C 50.40625 53.0625 50.253906 53.441406 50.128906 53.75 C 49.882812 54.351562 49.738281 54.710938 49.738281 54.710938 C 49.738281 54.710938 49.761719 54.617188 49.800781 54.449219 C 49.84375 54.277344 49.90625 54.027344 49.988281 53.703125 C 50.074219 53.378906 50.179688 52.984375 50.308594 52.53125 C 50.375 52.300781 50.449219 52.058594 50.527344 51.800781 C 50.566406 51.671875 50.609375 51.539062 50.652344 51.402344 C 50.695312 51.269531 50.738281 51.128906 50.789062 50.988281 C 50.933594 50.554688 51.097656 50.09375 51.289062 49.609375 C 51.191406 49.53125 51.09375 49.449219 50.992188 49.367188 C 50.726562 49.148438 50.449219 48.925781 50.152344 48.738281 C 50.136719 48.730469 50.125 48.722656 50.113281 48.714844 C 50.097656 48.820312 50.082031 48.925781 50.066406 49.03125 C 50.03125 49.253906 50 49.480469 49.964844 49.714844 C 49.929688 49.949219 49.898438 50.1875 49.867188 50.421875 C 49.835938 50.660156 49.8125 50.894531 49.785156 51.121094 C 49.738281 51.578125 49.710938 52.007812 49.714844 52.367188 C 49.71875 52.511719 49.585938 52.621094 49.445312 52.59375 L 48.386719 52.402344 C 48.378906 52.464844 48.367188 52.53125 48.359375 52.589844 C 48.355469 52.640625 48.347656 52.6875 48.34375 52.730469 L 49.261719 52.902344 C 49.457031 52.9375 49.582031 53.128906 49.539062 53.324219 C 49.480469 53.585938 49.394531 53.972656 49.296875 54.4375 C 49.246094 54.667969 49.191406 54.917969 49.140625 55.179688 C 49.085938 55.441406 49.03125 55.714844 48.976562 55.992188 C 48.921875 56.269531 48.871094 56.554688 48.820312 56.835938 C 48.769531 57.117188 48.722656 57.398438 48.679688 57.671875 C 48.601562 58.21875 48.539062 58.734375 48.523438 59.164062 C 48.515625 59.335938 48.355469 59.460938 48.1875 59.421875 L 46.316406 58.984375 C 46.148438 58.945312 46.058594 58.765625 46.125 58.609375 C 46.300781 58.222656 46.46875 57.742188 46.621094 57.21875 C 46.695312 56.957031 46.769531 56.683594 46.839844 56.410156 C 46.910156 56.136719 46.972656 55.859375 47.035156 55.585938 C 47.097656 55.3125 47.15625 55.046875 47.207031 54.789062 C 47.257812 54.527344 47.304688 54.28125 47.34375 54.050781 C 47.386719 53.824219 47.425781 53.613281 47.453125 53.425781 C 47.484375 53.238281 47.507812 53.074219 47.527344 52.945312 C 47.558594 52.753906 47.742188 52.621094 47.9375 52.65625 L 48.222656 52.707031 C 48.222656 52.667969 48.222656 52.625 48.222656 52.582031 C 48.222656 52.511719 48.222656 52.441406 48.222656 52.371094 L 47.875 52.308594 C 47.734375 52.28125 47.652344 52.136719 47.703125 52.003906 C 47.832031 51.675781 47.949219 51.269531 48.058594 50.828125 C 48.105469 50.632812 48.148438 50.433594 48.191406 50.230469 C 48.1875 50.117188 48.183594 50.003906 48.179688 49.886719 C 48.164062 49.371094 48.140625 48.808594 48.105469 48.214844 C 48.105469 48.214844 48.101562 48.214844 48.101562 48.214844 C 47.34375 48.273438 46.558594 48.570312 45.875 49.054688 C 45.535156 49.300781 45.21875 49.585938 44.945312 49.921875 C 44.664062 50.257812 44.417969 50.632812 44.207031 51.039062 C 43.992188 51.445312 43.816406 51.871094 43.667969 52.304688 C 43.667969 52.316406 43.667969 52.328125 43.664062 52.34375 C 43.644531 52.613281 43.609375 53.015625 43.570312 53.492188 C 43.53125 53.972656 43.496094 54.527344 43.457031 55.101562 C 43.4375 55.386719 43.421875 55.679688 43.410156 55.972656 C 43.398438 56.261719 43.386719 56.550781 43.382812 56.828125 C 43.375 57.109375 43.375 57.382812 43.382812 57.640625 C 43.382812 57.894531 43.394531 58.136719 43.414062 58.351562 C 43.429688 58.527344 43.28125 58.671875 43.109375 58.65625 L 41.171875 58.457031 C 41 58.4375 40.882812 58.269531 40.933594 58.105469 C 40.996094 57.898438 41.054688 57.667969 41.105469 57.421875 C 41.160156 57.175781 41.207031 56.914062 41.25 56.640625 C 41.292969 56.371094 41.332031 56.089844 41.367188 55.804688 C 41.398438 55.519531 41.425781 55.230469 41.453125 54.949219 C 41.507812 54.386719 41.535156 53.839844 41.558594 53.367188 C 41.566406 53.222656 41.570312 53.085938 41.574219 52.957031 C 41.5625 52.5625 41.558594 52.148438 41.566406 51.710938 C 41.574219 51.144531 41.605469 50.546875 41.671875 49.921875 C 41.570312 49.488281 41.445312 49.046875 41.285156 48.605469 C 41.078125 48.042969 40.808594 47.484375 40.476562 46.957031 C 40.140625 46.433594 39.742188 45.964844 39.308594 45.574219 C 39.089844 45.378906 38.859375 45.207031 38.625 45.050781 C 38.476562 44.953125 38.324219 44.867188 38.175781 44.785156 C 38.164062 44.914062 38.15625 45.046875 38.144531 45.175781 C 38.089844 45.972656 38.050781 46.714844 38.023438 47.394531 C 37.964844 48.753906 37.941406 49.863281 37.914062 50.625 C 37.890625 51.390625 37.871094 51.8125 37.871094 51.8125 C 37.871094 51.8125 37.824219 51.394531 37.746094 50.632812 C 37.671875 49.871094 37.5625 48.769531 37.488281 47.398438 C 37.449219 46.714844 37.417969 45.964844 37.414062 45.15625 C 37.410156 44.917969 37.410156 44.675781 37.414062 44.429688 C 37.328125 44.398438 37.246094 44.367188 37.164062 44.339844 C 37.160156 44.339844 37.160156 44.339844 37.15625 44.335938 C 37.210938 44.683594 37.269531 45.003906 37.332031 45.28125 C 37.371094 45.445312 37.25 45.605469 37.085938 45.609375 L 35.226562 45.683594 C 35.0625 45.691406 34.929688 45.546875 34.953125 45.386719 C 35.015625 44.984375 35.042969 44.492188 35.046875 43.972656 C 34.859375 43.96875 34.675781 43.972656 34.503906 43.984375 C 34.714844 44.730469 34.886719 45.457031 35.027344 46.148438 C 35.035156 46.1875 35.042969 46.226562 35.050781 46.261719 C 35.117188 46.148438 35.242188 46.070312 35.386719 46.0625 L 36.957031 46.007812 C 37.183594 46 37.375 46.1875 37.375 46.421875 C 37.371094 47.050781 37.363281 48.289062 37.382812 49.609375 C 37.398438 50.933594 37.449219 52.347656 37.617188 53.332031 C 37.648438 53.53125 37.496094 53.710938 37.296875 53.703125 L 35.058594 53.660156 C 34.859375 53.65625 34.710938 53.472656 34.753906 53.277344 C 34.960938 52.304688 35.054688 50.910156 35.074219 49.609375 C 35.074219 49.488281 35.074219 49.367188 35.078125 49.25 C 34.882812 48.375 34.65625 47.375 34.375 46.300781 C 34.191406 45.589844 33.980469 44.84375 33.738281 44.082031 C 33.496094 44.125 33.285156 44.179688 33.105469 44.230469 C 32.917969 44.285156 32.765625 44.335938 32.652344 44.382812 C 33.371094 45.648438 33.828125 46.878906 34.132812 47.9375 C 34.453125 49.054688 34.59375 49.984375 34.664062 50.625 C 34.683594 50.785156 34.695312 50.925781 34.707031 51.050781 C 34.71875 51.175781 34.726562 51.277344 34.730469 51.363281 C 34.738281 51.53125 34.746094 51.621094 34.746094 51.621094 C 34.746094 51.621094 34.726562 51.53125 34.691406 51.367188 C 34.675781 51.285156 34.652344 51.183594 34.625 51.0625 C 34.597656 50.945312 34.566406 50.804688 34.527344 50.648438 C 34.371094 50.027344 34.121094 49.136719 33.707031 48.082031 C 33.289062 47.03125 32.707031 45.804688 31.886719 44.570312 C 31.476562 43.957031 31.007812 43.339844 30.46875 42.753906 C 29.925781 42.167969 29.3125 41.617188 28.628906 41.136719 C 27.945312 40.660156 27.214844 40.289062 26.480469 40.027344 C 26.113281 39.902344 25.742188 39.804688 25.371094 39.730469 C 25 39.660156 24.628906 39.617188 24.269531 39.597656 C 23.90625 39.578125 23.550781 39.578125 23.207031 39.601562 C 22.863281 39.625 22.527344 39.664062 22.207031 39.71875 C 21.886719 39.777344 21.578125 39.851562 21.285156 39.929688 C 20.992188 40.015625 20.714844 40.105469 20.453125 40.210938 C 19.410156 40.617188 18.644531 41.140625 18.144531 41.539062 C 17.898438 41.738281 17.714844 41.90625 17.59375 42.023438 C 17.472656 42.140625 17.410156 42.203125 17.410156 42.203125 C 17.410156 42.203125 17.464844 42.128906 17.566406 41.996094 C 17.667969 41.863281 17.828125 41.671875 18.050781 41.433594 C 18.277344 41.199219 18.566406 40.925781 18.933594 40.640625 C 19.300781 40.359375 19.742188 40.0625 20.269531 39.800781 C 20.53125 39.664062 20.816406 39.542969 21.117188 39.421875 C 21.417969 39.3125 21.738281 39.203125 22.074219 39.117188 C 22.414062 39.03125 22.769531 38.960938 23.140625 38.910156 C 23.507812 38.863281 23.894531 38.835938 24.289062 38.835938 C 24.6875 38.839844 25.09375 38.863281 25.503906 38.925781 C 25.917969 38.984375 26.335938 39.078125 26.75 39.207031 C 27.582031 39.472656 28.394531 39.875 29.144531 40.398438 C 29.894531 40.925781 30.546875 41.535156 31.109375 42.179688 C 31.667969 42.824219 32.136719 43.5 32.53125 44.167969 C 32.566406 44.226562 32.597656 44.289062 32.632812 44.347656 C 32.742188 44.289062 32.886719 44.214844 33.070312 44.128906 C 33.238281 44.054688 33.445312 43.976562 33.679688 43.902344 C 33.5 43.347656 33.308594 42.789062 33.089844 42.222656 C 32.820312 41.515625 32.523438 40.839844 32.214844 40.203125 C 32.136719 40.042969 32.058594 39.886719 31.980469 39.726562 C 31.898438 39.574219 31.816406 39.421875 31.734375 39.269531 C 31.65625 39.117188 31.570312 38.972656 31.488281 38.828125 C 31.402344 38.683594 31.324219 38.535156 31.234375 38.398438 C 31.148438 38.261719 31.066406 38.125 30.980469 37.988281 C 30.894531 37.851562 30.804688 37.726562 30.71875 37.59375 C 30.550781 37.335938 30.367188 37.097656 30.199219 36.859375 C 30.113281 36.742188 30.019531 36.632812 29.933594 36.519531 C 29.890625 36.464844 29.847656 36.410156 29.804688 36.355469 L 29.742188 36.273438 L 29.675781 36.195312 C 29.589844 36.09375 29.503906 35.992188 29.417969 35.894531 C 29.375 35.84375 29.335938 35.792969 29.292969 35.746094 C 29.25 35.699219 29.207031 35.652344 29.164062 35.609375 C 28.996094 35.425781 28.835938 35.246094 28.675781 35.09375 C 28.59375 35.015625 28.515625 34.941406 28.441406 34.863281 C 28.402344 34.828125 28.367188 34.789062 28.328125 34.753906 C 28.292969 34.722656 28.253906 34.6875 28.21875 34.65625 C 28.070312 34.523438 27.933594 34.398438 27.804688 34.285156 C 27.671875 34.179688 27.550781 34.082031 27.441406 33.992188 C 27.386719 33.945312 27.335938 33.902344 27.289062 33.867188 C 27.238281 33.828125 27.191406 33.792969 27.148438 33.761719 C 27.0625 33.699219 26.988281 33.644531 26.925781 33.597656 C 26.808594 33.511719 26.746094 33.460938 26.746094 33.460938 C 26.746094 33.460938 26.816406 33.5 26.945312 33.570312 C 27.011719 33.605469 27.09375 33.648438 27.1875 33.699219 C 27.234375 33.726562 27.289062 33.753906 27.34375 33.785156 C 27.398438 33.816406 27.453125 33.851562 27.511719 33.890625 C 27.636719 33.964844 27.769531 34.046875 27.914062 34.140625 C 28.058594 34.234375 28.210938 34.34375 28.375 34.460938 C 28.417969 34.492188 28.460938 34.519531 28.5 34.550781 C 28.542969 34.582031 28.585938 34.617188 28.628906 34.648438 C 28.710938 34.714844 28.800781 34.785156 28.890625 34.855469 C 29.074219 34.996094 29.25 35.160156 29.441406 35.328125 C 29.492188 35.371094 29.539062 35.414062 29.589844 35.457031 C 29.636719 35.503906 29.683594 35.546875 29.730469 35.59375 C 29.828125 35.6875 29.925781 35.785156 30.023438 35.878906 L 30.097656 35.953125 L 30.171875 36.03125 C 30.21875 36.085938 30.269531 36.136719 30.320312 36.191406 C 30.417969 36.296875 30.519531 36.402344 30.617188 36.515625 C 30.8125 36.75 31.019531 36.980469 31.210938 37.238281 C 31.308594 37.367188 31.410156 37.492188 31.507812 37.625 C 31.601562 37.761719 31.699219 37.898438 31.796875 38.039062 C 31.894531 38.175781 31.984375 38.320312 32.078125 38.464844 C 32.171875 38.613281 32.269531 38.757812 32.359375 38.914062 C 32.449219 39.066406 32.539062 39.222656 32.628906 39.375 C 32.714844 39.539062 32.804688 39.699219 32.890625 39.859375 C 33.230469 40.515625 33.546875 41.207031 33.828125 41.9375 C 34.058594 42.539062 34.253906 43.132812 34.429688 43.71875 C 34.621094 43.683594 34.828125 43.652344 35.046875 43.636719 C 35.039062 43.214844 35.019531 42.777344 34.988281 42.355469 C 34.90625 41.285156 34.753906 40.300781 34.664062 39.804688 C 34.632812 39.621094 34.757812 39.445312 34.949219 39.414062 L 36.238281 39.222656 C 36.425781 39.195312 36.605469 39.332031 36.625 39.527344 C 36.679688 40.046875 36.785156 41.078125 36.898438 42.183594 C 36.957031 42.71875 37.015625 43.265625 37.082031 43.785156 C 37.160156 43.804688 37.234375 43.824219 37.3125 43.84375 C 37.351562 43.851562 37.386719 43.863281 37.421875 43.875 C 37.433594 43.449219 37.449219 43.015625 37.480469 42.566406 C 37.507812 42.109375 37.546875 41.644531 37.601562 41.167969 C 37.65625 40.6875 37.71875 40.207031 37.792969 39.71875 C 37.933594 38.742188 38.109375 37.730469 38.332031 36.703125 C 38.488281 35.960938 38.667969 35.242188 38.863281 34.542969 C 38.828125 34.511719 38.792969 34.484375 38.757812 34.457031 C 38.695312 34.410156 38.628906 34.371094 38.566406 34.328125 C 38.503906 34.285156 38.4375 34.25 38.371094 34.210938 C 37.835938 33.921875 37.234375 33.796875 36.6875 33.855469 C 36.417969 33.886719 36.160156 33.964844 35.9375 34.085938 C 35.878906 34.113281 35.828125 34.152344 35.773438 34.1875 C 35.722656 34.21875 35.667969 34.257812 35.621094 34.300781 C 35.539062 34.367188 35.460938 34.441406 35.386719 34.523438 C 35.492188 34.953125 35.628906 35.519531 35.773438 36.113281 C 35.984375 36.976562 36.203125 37.898438 36.429688 38.535156 C 36.476562 38.660156 36.398438 38.796875 36.265625 38.820312 L 34.800781 39.050781 C 34.671875 39.070312 34.554688 38.96875 34.558594 38.839844 C 34.582031 38.191406 34.457031 37.285156 34.28125 36.453125 C 34.269531 36.394531 34.257812 36.339844 34.246094 36.285156 C 34.101562 36.554688 33.980469 36.8125 33.875 37.046875 C 33.9375 37.238281 33.992188 37.425781 34.046875 37.609375 C 34.363281 38.726562 34.503906 39.65625 34.578125 40.296875 C 34.597656 40.457031 34.609375 40.601562 34.621094 40.722656 C 34.632812 40.847656 34.636719 40.949219 34.644531 41.035156 C 34.652344 41.203125 34.65625 41.292969 34.65625 41.292969 C 34.65625 41.292969 34.640625 41.203125 34.605469 41.039062 C 34.589844 40.957031 34.566406 40.855469 34.539062 40.734375 C 34.511719 40.613281 34.480469 40.476562 34.4375 40.320312 C 34.285156 39.699219 34.035156 38.808594 33.621094 37.753906 C 33.613281 37.738281 33.605469 37.71875 33.597656 37.703125 C 33.585938 37.734375 33.578125 37.761719 33.566406 37.792969 C 33.472656 38.035156 33.40625 38.230469 33.363281 38.363281 C 33.320312 38.492188 33.296875 38.5625 33.296875 38.5625 C 33.296875 38.5625 33.308594 38.488281 33.332031 38.355469 C 33.355469 38.21875 33.394531 38.015625 33.453125 37.757812 C 33.472656 37.679688 33.496094 37.59375 33.519531 37.503906 C 33.109375 36.511719 32.554688 35.382812 31.800781 34.246094 C 31.390625 33.628906 30.917969 33.011719 30.378906 32.425781 C 29.839844 31.839844 29.226562 31.289062 28.542969 30.808594 C 27.910156 30.367188 27.234375 30.015625 26.554688 29.761719 C 26.414062 29.863281 26.285156 29.960938 26.171875 30.050781 C 25.925781 30.25 25.742188 30.417969 25.621094 30.535156 C 25.5 30.652344 25.4375 30.714844 25.4375 30.714844 C 25.4375 30.714844 25.492188 30.644531 25.589844 30.511719 C 25.695312 30.375 25.855469 30.183594 26.078125 29.945312 C 26.15625 29.863281 26.246094 29.773438 26.34375 29.683594 C 25.992188 29.566406 25.636719 29.472656 25.285156 29.402344 C 24.914062 29.332031 24.542969 29.289062 24.183594 29.269531 C 23.820312 29.25 23.464844 29.25 23.121094 29.273438 C 22.773438 29.296875 22.441406 29.335938 22.121094 29.390625 C 21.796875 29.449219 21.492188 29.519531 21.199219 29.601562 C 20.90625 29.6875 20.628906 29.777344 20.367188 29.882812 C 19.324219 30.289062 18.558594 30.8125 18.058594 31.207031 C 17.8125 31.410156 17.628906 31.578125 17.507812 31.695312 C 17.386719 31.8125 17.324219 31.875 17.324219 31.875 C 17.324219 31.875 17.378906 31.804688 17.476562 31.667969 C 17.582031 31.535156 17.742188 31.34375 17.964844 31.105469 C 18.191406 30.871094 18.480469 30.597656 18.847656 30.3125 C 19.214844 30.03125 19.65625 29.734375 20.183594 29.472656 C 20.445312 29.335938 20.726562 29.214844 21.027344 29.09375 C 21.332031 28.980469 21.652344 28.878906 21.988281 28.789062 C 22.328125 28.703125 22.683594 28.632812 23.050781 28.582031 C 23.421875 28.535156 23.808594 28.507812 24.203125 28.507812 C 24.597656 28.507812 25.003906 28.535156 25.417969 28.597656 C 25.832031 28.65625 26.246094 28.75 26.664062 28.878906 C 26.8125 28.929688 26.964844 28.984375 27.113281 29.039062 C 27.449219 28.792969 27.839844 28.539062 28.296875 28.3125 C 28.558594 28.175781 28.839844 28.054688 29.140625 27.933594 C 29.445312 27.824219 29.761719 27.71875 30.101562 27.628906 C 30.355469 27.566406 30.621094 27.507812 30.890625 27.464844 C 30.851562 27.394531 30.8125 27.324219 30.769531 27.253906 C 30.382812 26.605469 29.976562 25.988281 29.566406 25.410156 C 29.460938 25.265625 29.355469 25.125 29.253906 24.984375 C 29.148438 24.84375 29.042969 24.710938 28.9375 24.574219 C 28.832031 24.4375 28.722656 24.308594 28.617188 24.179688 C 28.507812 24.050781 28.40625 23.917969 28.296875 23.800781 C 28.1875 23.675781 28.082031 23.558594 27.976562 23.4375 C 27.871094 23.316406 27.757812 23.207031 27.652344 23.09375 C 27.441406 22.863281 27.222656 22.660156 27.015625 22.457031 C 26.910156 22.351562 26.800781 22.261719 26.699219 22.164062 C 26.648438 22.117188 26.59375 22.070312 26.542969 22.023438 L 26.46875 21.957031 L 26.390625 21.890625 C 26.285156 21.804688 26.183594 21.71875 26.082031 21.632812 C 26.035156 21.59375 25.984375 21.550781 25.933594 21.511719 C 25.886719 21.472656 25.835938 21.433594 25.785156 21.394531 C 25.585938 21.246094 25.402344 21.097656 25.214844 20.972656 C 25.125 20.910156 25.035156 20.847656 24.949219 20.785156 C 24.902344 20.757812 24.863281 20.722656 24.820312 20.695312 C 24.777344 20.667969 24.734375 20.644531 24.691406 20.617188 C 24.523438 20.511719 24.367188 20.410156 24.222656 20.320312 C 24.125 20.269531 24.035156 20.214844 23.949219 20.167969 C 18.691406 25.027344 15.398438 31.984375 15.398438 39.710938 C 15.398438 51.675781 23.296875 61.796875 34.164062 65.140625 C 34.171875 64.957031 34.179688 64.785156 34.183594 64.625 C 34.1875 64.328125 34.195312 64.070312 34.199219 63.867188 C 34.207031 63.558594 34.464844 63.320312 34.773438 63.335938 L 36.867188 63.445312 C 37.175781 63.460938 37.410156 63.730469 37.382812 64.039062 C 37.363281 64.246094 37.34375 64.503906 37.316406 64.800781 C 37.292969 65.097656 37.265625 65.4375 37.234375 65.804688 C 37.234375 65.832031 37.230469 65.859375 37.230469 65.886719 C 38.03125 66.035156 38.84375 66.140625 39.671875 66.214844 C 39.636719 66.140625 39.628906 66.050781 39.660156 65.96875 C 39.746094 65.734375 39.832031 65.472656 39.914062 65.191406 C 39.953125 65.050781 39.996094 64.90625 40.03125 64.753906 C 40.070312 64.605469 40.105469 64.449219 40.140625 64.292969 C 40.210938 63.980469 40.277344 63.65625 40.339844 63.328125 C 40.398438 63 40.453125 62.667969 40.503906 62.339844 C 40.527344 62.179688 40.554688 62.015625 40.578125 61.855469 C 40.597656 61.695312 40.617188 61.539062 40.636719 61.386719 C 40.675781 61.078125 40.707031 60.78125 40.738281 60.507812 C 40.796875 59.960938 40.832031 59.496094 40.855469 59.1875 C 40.875 58.957031 41.082031 58.785156 41.3125 58.808594 L 42.898438 58.976562 C 43.136719 59 43.300781 59.214844 43.265625 59.449219 C 43.214844 59.765625 43.152344 60.234375 43.078125 60.789062 C 43.039062 61.070312 42.996094 61.367188 42.957031 61.683594 C 42.914062 61.996094 42.875 62.328125 42.832031 62.660156 C 42.789062 62.996094 42.75 63.335938 42.714844 63.675781 C 42.675781 64.015625 42.640625 64.351562 42.613281 64.679688 C 42.597656 64.84375 42.585938 65.003906 42.578125 65.160156 C 42.566406 65.320312 42.554688 65.472656 42.546875 65.625 C 42.535156 65.863281 42.527344 66.09375 42.527344 66.308594 C 43.011719 66.300781 43.488281 66.277344 43.964844 66.242188 C 43.96875 66.230469 43.972656 66.21875 43.980469 66.207031 C 44.417969 65.316406 44.855469 63.984375 45.195312 62.722656 C 45.542969 61.460938 45.796875 60.265625 45.914062 59.664062 C 45.960938 59.4375 46.1875 59.296875 46.410156 59.347656 L 47.941406 59.707031 C 48.167969 59.761719 48.304688 59.992188 48.242188 60.214844 C 48.074219 60.820312 47.753906 62.011719 47.441406 63.296875 C 47.234375 64.160156 47.03125 65.0625 46.894531 65.867188 C 54.34375 64.480469 60.707031 59.992188 64.582031 53.789062 C 64.292969 53.179688 63.765625 52.039062 63.085938 50.515625 " fill-opacity="1" fill-rule="nonzero"/></g><path fill="#40b93c" d="M 38.566406 41.296875 C 38.496094 41.753906 38.433594 42.207031 38.378906 42.648438 C 38.316406 43.167969 38.269531 43.671875 38.226562 44.164062 C 38.46875 44.269531 38.710938 44.390625 38.949219 44.53125 C 39.214844 44.691406 39.476562 44.875 39.726562 45.085938 C 40.226562 45.507812 40.675781 46.015625 41.042969 46.59375 C 41.410156 47.171875 41.691406 47.785156 41.894531 48.390625 C 41.894531 48.390625 41.894531 48.394531 41.894531 48.394531 C 41.917969 48.289062 41.9375 48.179688 41.960938 48.074219 C 41.960938 48.023438 41.964844 47.972656 41.964844 47.925781 C 41.96875 47.703125 41.96875 47.488281 41.972656 47.292969 C 41.972656 47.097656 41.972656 46.914062 41.96875 46.757812 C 41.964844 46.59375 41.964844 46.457031 41.960938 46.347656 C 41.957031 46.179688 42.09375 46.042969 42.257812 46.046875 L 42.539062 46.050781 C 42.578125 45.9375 42.621094 45.824219 42.664062 45.710938 L 42.183594 45.707031 C 42.070312 45.707031 41.984375 45.601562 42.007812 45.488281 C 42.066406 45.210938 42.097656 44.867188 42.125 44.503906 C 42.148438 44.160156 42.164062 43.796875 42.164062 43.441406 C 42.109375 43.109375 42.046875 42.738281 41.96875 42.332031 C 41.792969 41.414062 41.554688 40.328125 41.207031 39.148438 C 41.035156 38.558594 40.835938 37.941406 40.609375 37.320312 C 40.375 36.703125 40.105469 36.082031 39.734375 35.523438 C 39.726562 35.511719 39.714844 35.5 39.707031 35.484375 C 39.59375 35.957031 39.484375 36.4375 39.378906 36.925781 C 39.160156 37.933594 38.972656 38.921875 38.804688 39.882812 C 38.71875 40.363281 38.636719 40.839844 38.566406 41.296875 " fill-opacity="1" fill-rule="nonzero"/><path fill="#40b93c" d="M 44.953125 32.554688 C 44.992188 32.617188 45.027344 32.679688 45.066406 32.742188 C 45.101562 32.804688 45.136719 32.871094 45.175781 32.9375 C 45.25 33.066406 45.324219 33.203125 45.402344 33.339844 C 45.480469 33.476562 45.550781 33.617188 45.628906 33.761719 C 45.703125 33.910156 45.78125 34.054688 45.855469 34.207031 C 45.929688 34.359375 46.003906 34.515625 46.078125 34.671875 C 46.113281 34.753906 46.152344 34.832031 46.191406 34.914062 C 46.226562 34.996094 46.261719 35.078125 46.300781 35.160156 C 46.371094 35.324219 46.445312 35.492188 46.519531 35.664062 C 46.589844 35.835938 46.660156 36.011719 46.730469 36.1875 C 46.804688 36.363281 46.867188 36.546875 46.933594 36.730469 C 47 36.910156 47.074219 37.097656 47.132812 37.285156 C 47.199219 37.476562 47.261719 37.667969 47.328125 37.859375 C 47.371094 38.007812 47.417969 38.15625 47.460938 38.304688 C 47.925781 37.789062 48.375 37.324219 48.789062 36.902344 C 48.898438 36.792969 49 36.6875 49.101562 36.585938 C 48.980469 36.128906 48.835938 35.65625 48.675781 35.175781 C 48.371094 34.300781 48.03125 33.480469 47.695312 32.746094 C 47.609375 32.570312 47.519531 32.394531 47.4375 32.21875 L 47.375 32.089844 C 47.351562 32.046875 47.328125 32.003906 47.308594 31.964844 C 47.265625 31.882812 47.222656 31.804688 47.179688 31.722656 C 47.09375 31.566406 47.015625 31.410156 46.929688 31.265625 C 46.847656 31.125 46.769531 30.984375 46.6875 30.847656 C 46.609375 30.707031 46.53125 30.578125 46.453125 30.457031 C 45.882812 31.023438 45.335938 31.683594 44.878906 32.433594 C 44.902344 32.472656 44.925781 32.515625 44.953125 32.554688 " fill-opacity="1" fill-rule="nonzero"/><path fill="#40b93c" d="M 49.785156 37.625 C 49.789062 37.660156 49.792969 37.699219 49.800781 37.738281 C 49.792969 37.625 49.789062 37.511719 49.78125 37.402344 C 49.761719 37.117188 49.734375 36.824219 49.703125 36.523438 C 49.667969 36.566406 49.628906 36.613281 49.59375 36.65625 C 49.667969 36.988281 49.730469 37.3125 49.785156 37.625 " fill-opacity="1" fill-rule="nonzero"/><path fill="#40b93c" d="M 42.414062 51.570312 C 42.417969 51.683594 42.417969 51.796875 42.417969 51.910156 L 42.742188 51.925781 C 42.78125 51.8125 42.820312 51.703125 42.859375 51.589844 L 42.414062 51.570312 " fill-opacity="1" fill-rule="nonzero"/><path fill="#40b93c" d="M 43.589844 35.699219 C 43.464844 36.226562 43.371094 36.738281 43.289062 37.214844 C 43.257812 37.410156 43.226562 37.59375 43.195312 37.777344 C 43.203125 37.796875 43.207031 37.816406 43.207031 37.835938 C 43.210938 38.105469 43.214844 38.632812 43.242188 39.199219 C 43.265625 39.761719 43.316406 40.367188 43.40625 40.789062 C 43.425781 40.871094 43.363281 40.949219 43.273438 40.953125 L 42.3125 40.976562 C 42.226562 40.976562 42.160156 40.902344 42.175781 40.816406 C 42.246094 40.394531 42.257812 39.792969 42.25 39.230469 C 42.238281 38.667969 42.203125 38.144531 42.183594 37.878906 C 42.183594 37.875 42.183594 37.871094 42.183594 37.863281 C 42.0625 37.476562 41.914062 37.050781 41.730469 36.59375 C 41.367188 35.675781 40.878906 34.632812 40.21875 33.566406 C 40.125 33.894531 40.03125 34.234375 39.9375 34.574219 C 40.085938 34.746094 40.222656 34.925781 40.347656 35.113281 C 40.773438 35.75 41.050781 36.429688 41.273438 37.085938 C 41.492188 37.742188 41.667969 38.375 41.8125 38.988281 C 42.007812 39.832031 42.140625 40.625 42.234375 41.347656 C 42.269531 41.324219 42.304688 41.3125 42.347656 41.3125 L 43.253906 41.292969 C 43.386719 41.289062 43.496094 41.398438 43.492188 41.53125 C 43.488281 41.710938 43.488281 41.980469 43.488281 42.296875 C 43.484375 42.613281 43.488281 42.980469 43.496094 43.359375 C 43.5 43.511719 43.503906 43.667969 43.511719 43.824219 C 43.828125 43.210938 44.171875 42.628906 44.527344 42.078125 C 45 41.347656 45.492188 40.667969 45.988281 40.042969 C 46.253906 39.707031 46.519531 39.386719 46.78125 39.078125 C 46.746094 38.945312 46.714844 38.8125 46.679688 38.679688 C 46.628906 38.484375 46.578125 38.292969 46.523438 38.101562 C 46.46875 37.910156 46.414062 37.722656 46.359375 37.535156 C 46.308594 37.347656 46.25 37.164062 46.191406 36.980469 C 46.132812 36.800781 46.082031 36.617188 46.019531 36.445312 C 45.960938 36.269531 45.902344 36.09375 45.84375 35.921875 C 45.785156 35.75 45.722656 35.582031 45.660156 35.417969 C 45.632812 35.335938 45.601562 35.253906 45.574219 35.171875 C 45.542969 35.089844 45.511719 35.007812 45.480469 34.929688 C 45.417969 34.769531 45.355469 34.613281 45.296875 34.457031 C 45.234375 34.304688 45.167969 34.152344 45.109375 34.007812 C 45.046875 33.859375 44.988281 33.710938 44.925781 33.574219 C 44.863281 33.433594 44.800781 33.296875 44.738281 33.160156 C 44.710938 33.09375 44.679688 33.023438 44.652344 32.957031 C 44.640625 32.933594 44.628906 32.910156 44.617188 32.886719 C 44.402344 33.28125 44.222656 33.683594 44.070312 34.085938 C 43.867188 34.628906 43.710938 35.171875 43.589844 35.699219 " fill-opacity="1" fill-rule="nonzero"/><g clip-path="url(#id3)"><path fill="#40b93c" d="M 64.960938 15.085938 L 59.558594 15.085938 C 59.335938 15.085938 59.15625 14.902344 59.15625 14.679688 L 59.15625 9.28125 C 59.15625 9.058594 59.335938 8.875 59.558594 8.875 L 64.960938 8.875 C 65.183594 8.875 65.363281 9.058594 65.363281 9.28125 L 65.363281 14.679688 C 65.363281 14.902344 65.183594 15.085938 64.960938 15.085938 " fill-opacity="1" fill-rule="nonzero"/></g><g clip-path="url(#id4)"><path fill="#40b93c" d="M 77.007812 27.839844 L 71.605469 27.839844 C 71.382812 27.839844 71.203125 27.660156 71.203125 27.4375 L 71.203125 22.035156 C 71.203125 21.8125 71.382812 21.632812 71.605469 21.632812 L 77.007812 21.632812 C 77.230469 21.632812 77.410156 21.8125 77.410156 22.035156 L 77.410156 27.4375 C 77.410156 27.660156 77.230469 27.839844 77.007812 27.839844 " fill-opacity="1" fill-rule="nonzero"/></g><g clip-path="url(#id5)"><path fill="#40b93c" d="M 82.808594 22.804688 L 78.5625 22.804688 C 78.386719 22.804688 78.246094 22.664062 78.246094 22.488281 L 78.246094 18.246094 C 78.246094 18.070312 78.386719 17.925781 78.5625 17.925781 L 82.808594 17.925781 C 82.980469 17.925781 83.125 18.070312 83.125 18.246094 L 83.125 22.488281 C 83.125 22.664062 82.980469 22.804688 82.808594 22.804688 " fill-opacity="1" fill-rule="nonzero"/></g><g clip-path="url(#id6)"><path fill="#40b93c" d="M 73.984375 16.648438 L 70.898438 16.648438 C 70.773438 16.648438 70.667969 16.542969 70.667969 16.417969 L 70.667969 13.332031 C 70.667969 13.203125 70.773438 13.101562 70.898438 13.101562 L 73.984375 13.101562 C 74.113281 13.101562 74.214844 13.203125 74.214844 13.332031 L 74.214844 16.417969 C 74.214844 16.542969 74.113281 16.648438 73.984375 16.648438 " fill-opacity="1" fill-rule="nonzero"/></g><g clip-path="url(#id7)"><path fill="#40b93c" d="M 82.234375 14.355469 L 79.917969 14.355469 C 79.824219 14.355469 79.746094 14.277344 79.746094 14.183594 L 79.746094 11.867188 C 79.746094 11.773438 79.824219 11.695312 79.917969 11.695312 L 82.234375 11.695312 C 82.328125 11.695312 82.40625 11.773438 82.40625 11.867188 L 82.40625 14.183594 C 82.40625 14.277344 82.328125 14.355469 82.234375 14.355469 " fill-opacity="1" fill-rule="nonzero"/></g><g clip-path="url(#id8)"><path fill="#40b93c" d="M 67.144531 28.414062 L 60.203125 28.414062 C 59.914062 28.414062 59.683594 28.183594 59.683594 27.894531 L 59.683594 20.953125 C 59.683594 20.667969 59.914062 20.433594 60.203125 20.433594 L 67.144531 20.433594 C 67.429688 20.433594 67.664062 20.667969 67.664062 20.953125 L 67.664062 27.894531 C 67.664062 28.183594 67.429688 28.414062 67.144531 28.414062 " fill-opacity="1" fill-rule="nonzero"/></g><g clip-path="url(#id9)"><path fill="#ffffff" d="M 55.125 24.867188 L 51.269531 24.867188 C 51.109375 24.867188 50.980469 24.738281 50.980469 24.578125 L 50.980469 20.722656 C 50.980469 20.5625 51.109375 20.433594 51.269531 20.433594 L 55.125 20.433594 C 55.285156 20.433594 55.414062 20.5625 55.414062 20.722656 L 55.414062 24.578125 C 55.414062 24.738281 55.285156 24.867188 55.125 24.867188 " fill-opacity="1" fill-rule="nonzero"/></g><g clip-path="url(#id10)"><path fill="#ffffff" d="M 63.074219 22.90625 L 57.671875 22.90625 C 57.449219 22.90625 57.269531 22.726562 57.269531 22.503906 L 57.269531 17.101562 C 57.269531 16.878906 57.449219 16.699219 57.671875 16.699219 L 63.074219 16.699219 C 63.292969 16.699219 63.476562 16.878906 63.476562 17.101562 L 63.476562 22.503906 C 63.476562 22.726562 63.292969 22.90625 63.074219 22.90625 " fill-opacity="1" fill-rule="nonzero"/></g><g clip-path="url(#id11)"><path fill="#ffffff" d="M 68.332031 31.132812 L 62.542969 31.132812 C 62.304688 31.132812 62.113281 30.9375 62.113281 30.699219 L 62.113281 24.914062 C 62.113281 24.675781 62.304688 24.480469 62.542969 24.480469 L 68.332031 24.480469 C 68.570312 24.480469 68.761719 24.675781 68.761719 24.914062 L 68.761719 30.699219 C 68.761719 30.9375 68.570312 31.132812 68.332031 31.132812 " fill-opacity="1" fill-rule="nonzero"/></g><g fill="#000000" fill-opacity="1"><g transform="translate(78.253139, 45.216283)"><g><path d="M 5.546875 0.25 C 4.484375 0.25 3.554688 0.03125 2.765625 -0.40625 C 1.972656 -0.851562 1.3125 -1.472656 0.78125 -2.265625 L 2.015625 -3.296875 C 2.472656 -2.628906 2.984375 -2.113281 3.546875 -1.75 C 4.109375 -1.382812 4.773438 -1.203125 5.546875 -1.203125 C 7.554688 -1.203125 8.5625 -2.144531 8.5625 -4.03125 C 8.5625 -4.800781 8.375 -5.382812 8 -5.78125 C 7.632812 -6.175781 7 -6.484375 6.09375 -6.703125 L 4.984375 -6.984375 C 3.679688 -7.304688 2.722656 -7.78125 2.109375 -8.40625 C 1.492188 -9.039062 1.1875 -9.929688 1.1875 -11.078125 C 1.1875 -12.398438 1.597656 -13.394531 2.421875 -14.0625 C 3.242188 -14.738281 4.332031 -15.078125 5.6875 -15.078125 C 6.71875 -15.078125 7.582031 -14.882812 8.28125 -14.5 C 8.988281 -14.113281 9.601562 -13.515625 10.125 -12.703125 L 8.875 -11.8125 C 8.488281 -12.40625 8.050781 -12.851562 7.5625 -13.15625 C 7.082031 -13.457031 6.4375 -13.609375 5.625 -13.609375 C 4.71875 -13.609375 4.023438 -13.410156 3.546875 -13.015625 C 3.078125 -12.617188 2.84375 -11.972656 2.84375 -11.078125 C 2.84375 -10.359375 3.035156 -9.8125 3.421875 -9.4375 C 3.816406 -9.070312 4.445312 -8.785156 5.3125 -8.578125 L 6.40625 -8.296875 C 7.101562 -8.128906 7.691406 -7.925781 8.171875 -7.6875 C 8.648438 -7.457031 9.039062 -7.171875 9.34375 -6.828125 C 9.65625 -6.492188 9.878906 -6.097656 10.015625 -5.640625 C 10.148438 -5.179688 10.21875 -4.644531 10.21875 -4.03125 C 10.21875 -2.632812 9.800781 -1.570312 8.96875 -0.84375 C 8.144531 -0.113281 7.003906 0.25 5.546875 0.25 Z M 5.546875 0.25 "/></g></g></g><g fill="#000000" fill-opacity="1"><g transform="translate(89.40168, 45.216283)"><g><path d="M 3.359375 -14.828125 L 3.359375 -5.21875 C 3.359375 -4.550781 3.410156 -3.96875 3.515625 -3.46875 C 3.617188 -2.976562 3.789062 -2.566406 4.03125 -2.234375 C 4.269531 -1.898438 4.59375 -1.648438 5 -1.484375 C 5.40625 -1.328125 5.894531 -1.25 6.46875 -1.25 C 7.632812 -1.25 8.445312 -1.578125 8.90625 -2.234375 C 9.363281 -2.898438 9.59375 -3.894531 9.59375 -5.21875 L 9.59375 -14.828125 L 11.296875 -14.828125 L 11.296875 -5.5625 C 11.296875 -4.570312 11.207031 -3.710938 11.03125 -2.984375 C 10.863281 -2.253906 10.59375 -1.648438 10.21875 -1.171875 C 9.84375 -0.691406 9.347656 -0.332031 8.734375 -0.09375 C 8.117188 0.132812 7.363281 0.25 6.46875 0.25 C 5.582031 0.25 4.832031 0.132812 4.21875 -0.09375 C 3.601562 -0.332031 3.109375 -0.691406 2.734375 -1.171875 C 2.359375 -1.648438 2.082031 -2.253906 1.90625 -2.984375 C 1.738281 -3.710938 1.65625 -4.570312 1.65625 -5.5625 L 1.65625 -14.828125 Z M 3.359375 -14.828125 "/></g></g></g><g fill="#000000" fill-opacity="1"><g transform="translate(102.376456, 45.216283)"><g><path d="M 10.390625 -2.0625 L 10.171875 -2.0625 C 10.015625 -1.394531 9.632812 -0.84375 9.03125 -0.40625 C 8.425781 0.03125 7.582031 0.25 6.5 0.25 C 5.6875 0.25 4.945312 0.0976562 4.28125 -0.203125 C 3.625 -0.503906 3.0625 -0.96875 2.59375 -1.59375 C 2.125 -2.21875 1.757812 -3.015625 1.5 -3.984375 C 1.238281 -4.953125 1.109375 -6.09375 1.109375 -7.40625 C 1.109375 -10.050781 1.601562 -11.988281 2.59375 -13.21875 C 3.582031 -14.457031 4.976562 -15.078125 6.78125 -15.078125 C 8.082031 -15.078125 9.117188 -14.796875 9.890625 -14.234375 C 10.671875 -13.679688 11.28125 -12.914062 11.71875 -11.9375 L 10.3125 -11.078125 C 10.03125 -11.859375 9.597656 -12.46875 9.015625 -12.90625 C 8.441406 -13.34375 7.695312 -13.5625 6.78125 -13.5625 C 5.539062 -13.5625 4.585938 -13.15625 3.921875 -12.34375 C 3.265625 -11.53125 2.9375 -10.4375 2.9375 -9.0625 L 2.9375 -5.75 C 2.9375 -4.375 3.265625 -3.28125 3.921875 -2.46875 C 4.585938 -1.65625 5.539062 -1.25 6.78125 -1.25 C 7.257812 -1.25 7.710938 -1.316406 8.140625 -1.453125 C 8.578125 -1.597656 8.953125 -1.804688 9.265625 -2.078125 C 9.585938 -2.359375 9.835938 -2.703125 10.015625 -3.109375 C 10.203125 -3.515625 10.296875 -3.972656 10.296875 -4.484375 L 10.296875 -6.09375 L 7.375 -6.09375 L 7.375 -7.578125 L 11.953125 -7.578125 L 11.953125 0 L 10.390625 0 Z M 10.390625 -2.0625 "/></g></g></g><g fill="#000000" fill-opacity="1"><g transform="translate(115.690994, 45.216283)"><g><path d="M 10.109375 0 L 8.796875 -4.4375 L 3.46875 -4.4375 L 2.140625 0 L 0.453125 0 L 5.078125 -14.828125 L 7.203125 -14.828125 L 11.84375 0 Z M 6.6875 -11.46875 L 6.21875 -13.3125 L 6.015625 -13.3125 L 5.546875 -11.46875 L 3.859375 -5.84375 L 8.40625 -5.84375 Z M 6.6875 -11.46875 "/></g></g></g><g fill="#000000" fill-opacity="1"><g transform="translate(127.986244, 45.216283)"><g><path d="M 3.46875 0 L 1.765625 0 L 1.765625 -14.828125 L 7.21875 -14.828125 C 9.664062 -14.828125 10.890625 -13.414062 10.890625 -10.59375 C 10.890625 -8.21875 10.015625 -6.84375 8.265625 -6.46875 L 11.25 0 L 9.34375 0 L 6.5625 -6.375 L 3.46875 -6.375 Z M 7.171875 -7.8125 C 8.429688 -7.8125 9.0625 -8.492188 9.0625 -9.859375 L 9.0625 -11.296875 C 9.0625 -12.648438 8.429688 -13.328125 7.171875 -13.328125 L 3.46875 -13.328125 L 3.46875 -7.8125 Z M 7.171875 -7.8125 "/></g></g></g><g fill="#000000" fill-opacity="1"><g transform="translate(140.260254, 45.216283)"><g><path d="M 6.46875 0.25 C 5.632812 0.25 4.882812 0.0976562 4.21875 -0.203125 C 3.5625 -0.503906 3 -0.96875 2.53125 -1.59375 C 2.070312 -2.21875 1.71875 -3.015625 1.46875 -3.984375 C 1.226562 -4.953125 1.109375 -6.09375 1.109375 -7.40625 C 1.109375 -8.726562 1.226562 -9.875 1.46875 -10.84375 C 1.71875 -11.8125 2.070312 -12.601562 2.53125 -13.21875 C 3 -13.84375 3.5625 -14.304688 4.21875 -14.609375 C 4.882812 -14.921875 5.632812 -15.078125 6.46875 -15.078125 C 7.6875 -15.078125 8.664062 -14.816406 9.40625 -14.296875 C 10.144531 -13.785156 10.722656 -13 11.140625 -11.9375 L 9.78125 -11.109375 C 9.519531 -11.910156 9.132812 -12.519531 8.625 -12.9375 C 8.125 -13.351562 7.40625 -13.5625 6.46875 -13.5625 C 5.34375 -13.5625 4.472656 -13.15625 3.859375 -12.34375 C 3.242188 -11.53125 2.9375 -10.4375 2.9375 -9.0625 L 2.9375 -5.75 C 2.9375 -4.375 3.242188 -3.28125 3.859375 -2.46875 C 4.472656 -1.65625 5.34375 -1.25 6.46875 -1.25 C 7.4375 -1.25 8.179688 -1.472656 8.703125 -1.921875 C 9.222656 -2.367188 9.617188 -3.015625 9.890625 -3.859375 L 11.25 -3.015625 C 10.820312 -1.953125 10.222656 -1.140625 9.453125 -0.578125 C 8.679688 -0.0234375 7.6875 0.25 6.46875 0.25 Z M 6.46875 0.25 "/></g></g></g><g fill="#000000" fill-opacity="1"><g transform="translate(152.173263, 45.216283)"><g><path d="M 1.125 0 L 1.125 -1.40625 L 3 -1.40625 L 3 -13.421875 L 1.125 -13.421875 L 1.125 -14.828125 L 6.5625 -14.828125 L 6.5625 -13.421875 L 4.6875 -13.421875 L 4.6875 -1.40625 L 6.5625 -1.40625 L 6.5625 0 Z M 1.125 0 "/></g></g></g><g fill="#000000" fill-opacity="1"><g transform="translate(159.860448, 45.216283)"><g><path d="M 6.328125 -13.328125 L 6.328125 0 L 4.625 0 L 4.625 -13.328125 L 0.453125 -13.328125 L 0.453125 -14.828125 L 10.515625 -14.828125 L 10.515625 -13.328125 Z M 6.328125 -13.328125 "/></g></g></g><g fill="#000000" fill-opacity="1"><g transform="translate(170.817869, 45.216283)"><g><path d="M 4.8125 0 L 4.8125 -5.859375 L 0.234375 -14.828125 L 2.171875 -14.828125 L 5.578125 -7.765625 L 5.796875 -7.765625 L 9.21875 -14.828125 L 11.109375 -14.828125 L 6.515625 -5.859375 L 6.515625 0 Z M 4.8125 0 "/></g></g></g><g fill="#000000" fill-opacity="1"><g transform="translate(182.157524, 45.216283)"><g><path d="M 2.640625 0.25 C 1.796875 0.25 1.375 -0.109375 1.375 -0.828125 L 1.375 -1.171875 C 1.375 -1.890625 1.796875 -2.25 2.640625 -2.25 C 3.472656 -2.25 3.890625 -1.890625 3.890625 -1.171875 L 3.890625 -0.828125 C 3.890625 -0.109375 3.472656 0.25 2.640625 0.25 Z M 2.640625 0.25 "/></g></g></g><g fill="#000000" fill-opacity="1"><g transform="translate(187.423882, 45.216283)"><g><path d="M 1.125 0 L 1.125 -1.40625 L 3 -1.40625 L 3 -13.421875 L 1.125 -13.421875 L 1.125 -14.828125 L 6.5625 -14.828125 L 6.5625 -13.421875 L 4.6875 -13.421875 L 4.6875 -1.40625 L 6.5625 -1.40625 L 6.5625 0 Z M 1.125 0 "/></g></g></g><g fill="#000000" fill-opacity="1"><g transform="translate(195.111068, 45.216283)"><g><path d="M 6.78125 0.25 C 4.976562 0.25 3.582031 -0.363281 2.59375 -1.59375 C 1.601562 -2.820312 1.109375 -4.757812 1.109375 -7.40625 C 1.109375 -10.050781 1.601562 -11.988281 2.59375 -13.21875 C 3.582031 -14.457031 4.976562 -15.078125 6.78125 -15.078125 C 8.570312 -15.078125 9.960938 -14.457031 10.953125 -13.21875 C 11.941406 -11.988281 12.4375 -10.050781 12.4375 -7.40625 C 12.4375 -4.757812 11.941406 -2.820312 10.953125 -1.59375 C 9.960938 -0.363281 8.570312 0.25 6.78125 0.25 Z M 6.78125 -1.25 C 8.007812 -1.25 8.953125 -1.65625 9.609375 -2.46875 C 10.273438 -3.28125 10.609375 -4.375 10.609375 -5.75 L 10.609375 -9.0625 C 10.609375 -10.4375 10.273438 -11.53125 9.609375 -12.34375 C 8.953125 -13.15625 8.007812 -13.5625 6.78125 -13.5625 C 5.539062 -13.5625 4.585938 -13.15625 3.921875 -12.34375 C 3.265625 -11.53125 2.9375 -10.4375 2.9375 -9.0625 L 2.9375 -5.75 C 2.9375 -4.375 3.265625 -3.28125 3.921875 -2.46875 C 4.585938 -1.65625 5.539062 -1.25 6.78125 -1.25 Z M 6.78125 -1.25 "/></g></g></g></svg>